<svg width="420" height="465" viewBox="0 0 420 465" fill="none" xmlns="http://www.w3.org/2000/svg">
<g style="mix-blend-mode:color-burn" opacity="0.5" filter="url(#filter0_f_4_120)">
<path fill-rule="evenodd" clip-rule="evenodd" d="M263.874 430.912C259.621 439.773 251 445.835 241.057 445.835C226.897 445.835 215.418 433.541 215.418 418.375C215.418 416.2 215.645 414.002 216.076 411.769C214.012 417.048 212.854 422.085 212.854 427.001C212.854 442.167 224.333 454.461 238.493 454.461C251.414 454.461 262.102 444.225 263.874 430.912Z" fill="url(#paint0_radial_4_120)" fill-opacity="0.3"/>
</g>
<path opacity="0.5" d="M263.876 426.865C263.876 442.031 252.397 454.325 238.237 454.325C224.077 454.325 212.598 442.031 212.598 426.865C212.598 411.699 223.623 395.38 238.237 374.389C250.544 394.804 263.876 411.699 263.876 426.865Z" fill="url(#paint1_radial_4_120)"/>
<g style="mix-blend-mode:screen" opacity="0.3">
<ellipse cx="244.775" cy="404.293" rx="26.2802" ry="28.754" fill="url(#paint2_radial_4_120)"/>
</g>
<g style="mix-blend-mode:screen" opacity="0.3">
<ellipse cx="229.904" cy="435.635" rx="26.2802" ry="28.754" fill="url(#paint3_radial_4_120)"/>
</g>
<g style="mix-blend-mode:color-burn" opacity="0.5" filter="url(#filter1_f_4_120)">
<path fill-rule="evenodd" clip-rule="evenodd" d="M189.025 357.194C185.227 364.593 177.53 369.654 168.652 369.654C156.009 369.654 145.76 359.389 145.76 346.726C145.76 344.91 145.962 343.075 146.348 341.211C144.505 345.618 143.471 349.824 143.471 353.929C143.471 366.591 153.72 376.856 166.363 376.856C177.899 376.856 187.442 368.31 189.025 357.194Z" fill="url(#paint4_radial_4_120)" fill-opacity="0.3"/>
</g>
<path opacity="0.5" d="M189.026 353.815C189.026 366.478 178.777 376.743 166.134 376.743C153.491 376.743 143.242 366.478 143.242 353.815C143.242 341.152 153.085 327.526 166.134 310C177.122 327.046 189.026 341.152 189.026 353.815Z" fill="url(#paint5_radial_4_120)"/>
<g style="mix-blend-mode:screen" opacity="0.3">
<ellipse cx="171.971" cy="334.969" rx="23.4645" ry="24.0083" fill="url(#paint6_radial_4_120)"/>
</g>
<g style="mix-blend-mode:screen" opacity="0.3">
<ellipse cx="158.694" cy="361.138" rx="23.4645" ry="24.0083" fill="url(#paint7_radial_4_120)"/>
</g>
<g style="mix-blend-mode:color-burn" opacity="0.5" filter="url(#filter2_f_4_120)">
<path fill-rule="evenodd" clip-rule="evenodd" d="M333.52 357.194C329.723 364.592 322.025 369.654 313.148 369.654C300.505 369.654 290.256 359.389 290.256 346.726C290.256 344.91 290.458 343.074 290.843 341.21C289.001 345.618 287.966 349.824 287.966 353.928C287.966 366.591 298.215 376.856 310.858 376.856C322.395 376.856 331.938 368.31 333.52 357.194Z" fill="url(#paint8_radial_4_120)" fill-opacity="0.3"/>
</g>
<path opacity="0.5" d="M333.522 353.815C333.522 366.478 323.272 376.743 310.629 376.743C297.986 376.743 287.737 366.478 287.737 353.815C287.737 341.152 297.581 327.526 310.629 310C321.618 327.046 333.522 341.152 333.522 353.815Z" fill="url(#paint9_radial_4_120)"/>
<g style="mix-blend-mode:screen" opacity="0.3">
<ellipse cx="316.467" cy="334.969" rx="23.4645" ry="24.0083" fill="url(#paint10_radial_4_120)"/>
</g>
<g style="mix-blend-mode:screen" opacity="0.3">
<ellipse cx="303.19" cy="361.138" rx="23.4645" ry="24.0083" fill="url(#paint11_radial_4_120)"/>
</g>
<mask id="path-13-inside-1_4_120" fill="white">
<path fill-rule="evenodd" clip-rule="evenodd" d="M319.761 300L150.358 300C67.3176 300 0 232.843 0 150C0 67.1573 67.3176 0 150.358 0C217.131 0 273.738 43.4226 293.354 103.507C301.767 101.22 310.622 100 319.761 100C375.122 100 420 144.772 420 200C420 255.228 375.122 300 319.761 300Z"/>
</mask>
<g filter="url(#filter3_i_4_120)">
<path fill-rule="evenodd" clip-rule="evenodd" d="M319.761 300L150.358 300C67.3176 300 0 232.843 0 150C0 67.1573 67.3176 0 150.358 0C217.131 0 273.738 43.4226 293.354 103.507C301.767 101.22 310.622 100 319.761 100C375.122 100 420 144.772 420 200C420 255.228 375.122 300 319.761 300Z" fill="url(#paint12_linear_4_120)"/>
</g>
<path d="M150.358 300V299V300ZM319.761 300V301V300ZM293.354 103.507L292.403 103.817L292.698 104.721L293.616 104.472L293.354 103.507ZM150.358 301L319.761 301V299L150.358 299V301ZM-1 150C-1 233.397 66.7675 301 150.358 301V299C67.8676 299 1 232.288 1 150H-1ZM150.358 -1C66.7675 -1 -1 66.6027 -1 150H1C1 67.7118 67.8676 1 150.358 1V-1ZM294.304 103.196C274.558 42.7118 217.575 -1 150.358 -1V1C216.687 1 272.918 44.1334 292.403 103.817L294.304 103.196ZM293.616 104.472C301.945 102.208 310.711 101 319.761 101V99C310.532 99 301.59 100.232 293.091 102.542L293.616 104.472ZM319.761 101C374.572 101 419 145.326 419 200H421C421 144.217 375.672 99 319.761 99V101ZM419 200C419 254.674 374.572 299 319.761 299V301C375.672 301 421 255.783 421 200H419Z" fill="black" fill-opacity="0.05" mask="url(#path-13-inside-1_4_120)"/>
<defs>
<filter id="filter0_f_4_120" x="204.854" y="403.769" width="67.0205" height="58.6917" filterUnits="userSpaceOnUse" color-interpolation-filters="sRGB">
<feFlood flood-opacity="0" result="BackgroundImageFix"/>
<feBlend mode="normal" in="SourceGraphic" in2="BackgroundImageFix" result="shape"/>
<feGaussianBlur stdDeviation="4" result="effect1_foregroundBlur_4_120"/>
</filter>
<filter id="filter1_f_4_120" x="135.471" y="333.211" width="61.5542" height="51.6457" filterUnits="userSpaceOnUse" color-interpolation-filters="sRGB">
<feFlood flood-opacity="0" result="BackgroundImageFix"/>
<feBlend mode="normal" in="SourceGraphic" in2="BackgroundImageFix" result="shape"/>
<feGaussianBlur stdDeviation="4" result="effect1_foregroundBlur_4_120"/>
</filter>
<filter id="filter2_f_4_120" x="279.966" y="333.21" width="61.5542" height="51.6459" filterUnits="userSpaceOnUse" color-interpolation-filters="sRGB">
<feFlood flood-opacity="0" result="BackgroundImageFix"/>
<feBlend mode="normal" in="SourceGraphic" in2="BackgroundImageFix" result="shape"/>
<feGaussianBlur stdDeviation="4" result="effect1_foregroundBlur_4_120"/>
</filter>
<filter id="filter3_i_4_120" x="0" y="0" width="420" height="348.647" filterUnits="userSpaceOnUse" color-interpolation-filters="sRGB">
<feFlood flood-opacity="0" result="BackgroundImageFix"/>
<feBlend mode="normal" in="SourceGraphic" in2="BackgroundImageFix" result="shape"/>
<feColorMatrix in="SourceAlpha" type="matrix" values="0 0 0 0 0 0 0 0 0 0 0 0 0 0 0 0 0 0 127 0" result="hardAlpha"/>
<feOffset dy="48.6468"/>
<feGaussianBlur stdDeviation="30"/>
<feComposite in2="hardAlpha" operator="arithmetic" k2="-1" k3="1"/>
<feColorMatrix type="matrix" values="0 0 0 0 1 0 0 0 0 1 0 0 0 0 1 0 0 0 1 0"/>
<feBlend mode="normal" in2="shape" result="effect1_innerShadow_4_120"/>
</filter>
<radialGradient id="paint0_radial_4_120" cx="0" cy="0" r="1" gradientUnits="userSpaceOnUse" gradientTransform="translate(238.493 428.87) rotate(-40.9122) scale(44.7839 32.9571)">
<stop stop-color="#3CC7F5"/>
<stop offset="0.0001" stop-color="#3CC7F5"/>
<stop offset="1" stop-color="#004DFF"/>
</radialGradient>
<radialGradient id="paint1_radial_4_120" cx="0" cy="0" r="1" gradientUnits="userSpaceOnUse" gradientTransform="translate(238.237 428.734) rotate(-40.9122) scale(44.7839 32.9571)">
<stop stop-color="#3CC7F5"/>
<stop offset="0.0001" stop-color="#3CC7F5"/>
<stop offset="1" stop-color="#004DFF"/>
</radialGradient>
<radialGradient id="paint2_radial_4_120" cx="0" cy="0" r="1" gradientUnits="userSpaceOnUse" gradientTransform="translate(244.775 404.293) rotate(58.9731) scale(39.2592 10.9306)">
<stop stop-color="white"/>
<stop offset="0.555017" stop-color="#BDDBF1" stop-opacity="0.25"/>
<stop offset="1" stop-color="#5686F5" stop-opacity="0"/>
</radialGradient>
<radialGradient id="paint3_radial_4_120" cx="0" cy="0" r="1" gradientUnits="userSpaceOnUse" gradientTransform="translate(228.494 435.635) rotate(52.9232) scale(21.2638 10.0805)">
<stop stop-color="white"/>
<stop offset="0.673987" stop-color="#BDDBF1" stop-opacity="0.25"/>
<stop offset="1" stop-color="#5686F5" stop-opacity="0"/>
</radialGradient>
<radialGradient id="paint4_radial_4_120" cx="0" cy="0" r="1" gradientUnits="userSpaceOnUse" gradientTransform="translate(166.363 355.489) rotate(-39.0214) scale(38.8946 28.2895)">
<stop stop-color="#3CC7F5"/>
<stop offset="0.0001" stop-color="#3CC7F5"/>
<stop offset="1" stop-color="#004DFF"/>
</radialGradient>
<radialGradient id="paint5_radial_4_120" cx="0" cy="0" r="1" gradientUnits="userSpaceOnUse" gradientTransform="translate(166.134 355.376) rotate(-39.0214) scale(38.8946 28.2895)">
<stop stop-color="#3CC7F5"/>
<stop offset="0.0001" stop-color="#3CC7F5"/>
<stop offset="1" stop-color="#004DFF"/>
</radialGradient>
<radialGradient id="paint6_radial_4_120" cx="0" cy="0" r="1" gradientUnits="userSpaceOnUse" gradientTransform="translate(171.971 334.969) rotate(57.2503) scale(33.3987 9.57856)">
<stop stop-color="white"/>
<stop offset="0.555017" stop-color="#BDDBF1" stop-opacity="0.25"/>
<stop offset="1" stop-color="#5686F5" stop-opacity="0"/>
</radialGradient>
<radialGradient id="paint7_radial_4_120" cx="0" cy="0" r="1" gradientUnits="userSpaceOnUse" gradientTransform="translate(157.435 361.138) rotate(51.0597) scale(18.2114 8.77451)">
<stop stop-color="white"/>
<stop offset="0.673987" stop-color="#BDDBF1" stop-opacity="0.25"/>
<stop offset="1" stop-color="#5686F5" stop-opacity="0"/>
</radialGradient>
<radialGradient id="paint8_radial_4_120" cx="0" cy="0" r="1" gradientUnits="userSpaceOnUse" gradientTransform="translate(310.858 355.489) rotate(-39.0217) scale(38.8948 28.2897)">
<stop stop-color="#3CC7F5"/>
<stop offset="0.0001" stop-color="#3CC7F5"/>
<stop offset="1" stop-color="#004DFF"/>
</radialGradient>
<radialGradient id="paint9_radial_4_120" cx="0" cy="0" r="1" gradientUnits="userSpaceOnUse" gradientTransform="translate(310.629 355.376) rotate(-39.0214) scale(38.8946 28.2895)">
<stop stop-color="#3CC7F5"/>
<stop offset="0.0001" stop-color="#3CC7F5"/>
<stop offset="1" stop-color="#004DFF"/>
</radialGradient>
<radialGradient id="paint10_radial_4_120" cx="0" cy="0" r="1" gradientUnits="userSpaceOnUse" gradientTransform="translate(316.467 334.969) rotate(57.2503) scale(33.3987 9.57856)">
<stop stop-color="white"/>
<stop offset="0.555017" stop-color="#BDDBF1" stop-opacity="0.25"/>
<stop offset="1" stop-color="#5686F5" stop-opacity="0"/>
</radialGradient>
<radialGradient id="paint11_radial_4_120" cx="0" cy="0" r="1" gradientUnits="userSpaceOnUse" gradientTransform="translate(301.931 361.138) rotate(51.0597) scale(18.2114 8.77451)">
<stop stop-color="white"/>
<stop offset="0.673987" stop-color="#BDDBF1" stop-opacity="0.25"/>
<stop offset="1" stop-color="#5686F5" stop-opacity="0"/>
</radialGradient>
<linearGradient id="paint12_linear_4_120" x1="29.4233" y1="-2.50375e-06" x2="419.459" y2="300.861" gradientUnits="userSpaceOnUse">
<stop stop-color="white"/>
<stop offset="1" stop-color="#C1C1C1"/>
</linearGradient>
</defs>
</svg>
